<svg width="1017" height="712" viewBox="0 0 1017 712" fill="none" xmlns="http://www.w3.org/2000/svg">
<path d="M309.329 302.27L262.169 308.659C257.879 309.239 253.989 306.369 253.629 302.359L252.309 287.77C251.939 283.74 254.179 269.569 258.509 269.399L298.029 281.529C300.289 281.979 312.119 282.57 314.409 282.8C320.739 283.45 318.739 283.16 319.019 286.3L315.889 294.609C316.229 298.359 313.349 301.73 309.339 302.27H309.329Z" fill="#4A32AE"/>
<path d="M754.909 183.31C754.909 186.94 757.979 194.769 756.909 197.279C754.309 203.389 748.599 199.05 742.389 199.05C733.639 199.05 726.539 191.949 726.539 183.199C726.539 174.449 733.639 167.35 742.389 167.35C751.139 167.35 754.909 174.55 754.909 183.3V183.31Z" fill="#3C23A0"/>
<path d="M723.548 183.96C723.548 187.59 721.618 192.53 722.688 195.04C725.288 201.15 732.088 199.05 738.288 199.05C747.038 199.05 754.138 191.949 754.138 183.199C754.138 174.449 747.038 167.35 738.288 167.35C729.538 167.35 723.548 175.21 723.548 183.96Z" fill="#3C23A0"/>
<path d="M280.431 214.16C280.361 214.16 280.301 214.16 280.231 214.16C279.101 214.08 278.101 213.36 277.421 212.11C276.791 210.96 276.501 209.49 276.611 207.96C276.841 204.64 278.791 202.16 281.041 202.32C283.301 202.48 284.891 205.2 284.661 208.52C284.441 211.74 282.601 214.17 280.431 214.17V214.16ZM280.841 203.62C279.411 203.62 278.081 205.61 277.921 208.05C277.831 209.33 278.061 210.55 278.571 211.48C279.031 212.31 279.651 212.8 280.311 212.84C281.771 212.94 283.171 210.92 283.341 208.42C283.511 205.92 282.411 203.73 280.941 203.63C280.901 203.63 280.871 203.63 280.831 203.63L280.841 203.62Z" fill="#241950"/>
<path d="M472.839 552.819C467.969 552.819 464.019 548.87 464.019 544V449.05C464.019 430.32 479.749 415.08 499.079 415.08H612.639C622.239 415.08 630.039 407.76 630.039 398.76V234.1C630.039 225.1 622.229 217.779 612.639 217.779H373.399C363.799 217.779 355.999 225.1 355.999 234.1V282.76C355.999 287.63 352.049 291.58 347.179 291.58C342.309 291.58 338.359 287.63 338.359 282.76V234.1C338.359 215.37 354.089 200.13 373.409 200.13H612.649C631.979 200.13 647.699 215.37 647.699 234.1V398.76C647.699 417.49 631.969 432.729 612.649 432.729H499.089C489.489 432.729 481.679 440.05 481.679 449.05V544C481.679 548.87 477.729 552.819 472.859 552.819H472.839Z" fill="#735BD7"/>
<path d="M827.799 561.859H477.019C472.239 561.859 468.359 557.979 468.359 553.199C468.359 548.419 472.239 544.54 477.019 544.54H827.799C841.299 544.54 852.289 535.599 852.289 524.619V371.01C852.289 366.23 856.169 362.35 860.949 362.35C865.729 362.35 869.609 366.23 869.609 371.01V524.619C869.609 545.149 850.859 561.859 827.809 561.859H827.799Z" fill="#CFC4FF"/>
<path d="M793.46 263.22C786.35 257.67 782.11 266.719 780.16 271.869C777.43 279.039 789.56 281.05 797.06 277.85C804.56 274.65 812.11 278.009 812.11 274.779C812.11 270.149 806.28 273.24 793.47 263.22H793.46Z" fill="#8770EC"/>
<path d="M168.859 484.01C163.709 484.01 159.539 479.839 159.539 474.689V169.489C159.539 143.859 180.399 123 206.029 123H595.339C620.969 123 641.829 143.859 641.829 169.489V216.26C641.829 221.41 637.659 225.58 632.509 225.58C627.359 225.58 623.189 221.41 623.189 216.26V169.489C623.189 154.139 610.699 141.649 595.349 141.649H206.039C190.689 141.649 178.199 154.139 178.199 169.489V474.689C178.199 479.839 174.029 484.01 168.879 484.01H168.859Z" fill="#CFC4FF"/>
<path d="M728.328 205.69L763.688 256.51C774.378 271.5 777.778 272.68 782.438 271.8C784.848 271.34 787.168 270.41 789.278 269.14L795.008 265.68C796.118 265.49 796.678 264.21 796.038 263.31C794.208 260.71 792.548 258.48 791.028 256.5C781.138 243.57 772.948 229.42 766.688 214.36L763.478 206.659C761.178 202.379 758.568 199.79 754.408 198.25C749.058 196.27 739.618 195 734.598 198.77L728.318 205.699L728.328 205.69Z" fill="#BBABFF"/>
<path d="M678.13 221.159C684.08 228.689 675.53 232.669 670.36 231.889C658.51 230.109 659.99 221.539 663.47 212.599C666.95 203.659 662.69 194.79 665.7 195.96C670.57 197.85 671.48 212.739 678.13 221.149V221.159Z" fill="#8770EC"/>
<path d="M763.38 355.34C765.75 355.99 766.04 353.27 765.71 351.29C765.21 348.38 765 345.43 764.85 342.48L760.85 262.489C760.67 258.489 757.8 255.36 754.32 255.38L736.79 255.46H720.8C717.43 255.46 714.65 258.5 714.46 262.38L710.43 347.85C710.29 350.67 709.61 354.8 712.44 354.8C719.39 353.96 726.43 354.37 733.24 356L733.9 356.159C734.35 356.269 734.82 356.25 735.29 356.18C738.25 355.74 737.22 352.86 737.29 350.52L737.26 278.9C737.28 278.21 737.93 278.27 737.95 278.96L740.41 350.26C740.43 350.92 740.44 351.59 740.44 352.25C740.46 354.62 740.95 355.46 742.53 355.23C745.93 354.75 749.39 354.76 752.82 354.9L763.38 355.33V355.34Z" fill="#4A32AE"/>
<path d="M714.1 350.01H726.58C732.33 350.01 737.01 354.679 737.01 360.439V362.34C737.01 363.28 736.25 364.04 735.31 364.04H705.37C704.43 364.04 703.67 363.28 703.67 362.34V360.439C703.67 354.689 708.34 350.01 714.1 350.01Z" fill="#241950"/>
<path d="M750.27 350.13H756.51C762.26 350.13 766.94 354.8 766.94 360.56V362.31C766.94 363.25 766.18 364.01 765.24 364.01H741.55C740.61 364.01 739.85 363.25 739.85 362.31V360.56C739.85 354.81 744.52 350.13 750.28 350.13H750.27Z" fill="#241950"/>
<path d="M714.74 266.05C714.04 265.99 713.5 265.34 713.52 264.58L714.11 259.54C714.87 253.11 715.85 245.879 715.77 239.399C715.73 236.309 715.32 234.989 715.24 231.689C715.08 224.749 713.38 216.15 713.89 213.46C716.69 198.49 724.03 194.989 733.6 194.989H740.69C743.78 196.739 747.82 196.74 751.68 197.79C758.53 199.66 762.84 207.39 764.04 214.96C764.36 216.95 764.39 218.97 764.23 220.97L763.9 225.22C763.69 227.93 759.18 230.089 758.78 231.949C756.72 241.309 759.66 237.37 760.51 247.58C760.87 251.86 761.05 261.22 762.22 265.35C762.24 266.11 761.7 266.749 761 266.819L759.34 266.97C743.86 268.41 731.17 267.6 715.69 266.14L714.74 266.05Z" fill="#BBABFF"/>
<path d="M749.171 213.5L707.551 246.72C701.941 251 693.921 249.93 689.641 244.32L686.911 239.43C682.631 233.82 690.811 229.89 696.421 225.6L716.741 201.02C718.441 199.19 720.521 197.701 722.861 196.831C729.501 194.361 736.451 196.83 740.821 202.55L749.181 213.5H749.171Z" fill="#BBABFF"/>
<path d="M265.74 480.899C251.56 478.379 228.83 477.119 220.93 476.849C218.79 476.779 219.42 474.43 219.7 473.01C220.29 470.06 220.89 464.139 222.55 459.409C226.02 453.959 264.14 458.119 268.92 461.199C278.51 464.789 279.12 483.579 265.74 480.899Z" fill="#241950"/>
<path d="M264.728 459.4L282.628 306.44C268.188 310.97 252.828 311.81 237.968 309.26C231.998 308.25 247.158 299.74 241.348 297.73C241.278 297.7 233.718 302.82 233.648 302.8C230.238 301.9 230.528 311.449 229.998 315.989C228.258 327.199 227.848 337.12 229.978 348.36C230.768 351.62 232.878 358 232.698 361.56C231.708 381.21 230.118 398.37 227.898 417.15C226.178 431.7 222.988 445.51 221.428 457.13C221.248 458.43 222.308 459.589 223.678 459.619C229.988 460.769 232.388 461.71 249.458 459.15L264.738 459.39L264.728 459.4Z" fill="#A693FF"/>
<path d="M276.531 481.51C257.001 479.87 239.871 490.27 240.011 473.04C240.051 468.8 240.491 462.889 242.941 454.719C242.691 448.129 275.301 450.129 277.421 452.449C283.951 459.619 288.331 459.589 293.601 463.279C299.961 467.739 298.381 477.55 290.931 479.8C285.981 481.3 280.211 481.84 276.541 481.5L276.531 481.51Z" fill="#241950"/>
<path d="M268.698 461.279C269.188 461.189 269.678 461.13 270.168 461.04C273.718 460.44 281.948 455.98 281.948 453.25C281.928 451.99 281.108 448.89 281.128 438.18C281.188 414.07 282.328 392.319 282.098 374.369L281.048 315.42C280.508 310.88 294.258 303.75 289.998 304.93C278.018 308.83 265.558 310.92 252.958 310.67C246.758 310.55 240.548 309.86 234.388 308.58C231.498 307.98 233.178 313.87 230.318 313.01L240.898 421.699C241.718 427.929 235.888 444.51 236.258 454.06C237.488 461.3 246.138 462.09 252.018 462.08C257.988 462.27 262.068 462.49 268.678 461.27L268.698 461.279Z" fill="#A693FF"/>
<path d="M271.669 229.56C275.839 227.77 279.039 224.52 280.339 220.55C280.989 218.55 281.269 216.38 281.149 214.14C281.149 213.15 281.079 212.16 280.949 211.18C280.809 210.31 280.689 209.089 280.609 208.149C280.369 205.389 281.089 200.78 281.019 199.92C281.019 199.18 279.979 200.229 279.979 199.489C279.769 199.549 279.629 199.74 279.429 199.92C279.289 200.11 279.149 200.23 279.079 200.42C278.589 200.98 277.979 204.699 277.429 205.189L277.079 205.5L277.009 205.56C273.139 202.16 267.679 200.74 262.429 201.72C254.069 203.38 248.879 211.029 250.809 218.939C251.909 223.449 255.299 227.28 259.999 229.26C259.519 229.57 258.959 229.82 258.479 230L258.339 230.06C258.199 230.19 258.059 230.25 257.859 230.25C258.069 230.31 258.279 230.249 258.479 230.189C259.029 229.939 259.589 229.63 260.139 229.33C263.039 230.51 266.289 230.819 269.469 230.199C270.229 230.069 270.989 229.89 271.679 229.58L271.669 229.56Z" fill="#A693FF"/>
<path d="M283.625 207.059L276.119 207.299L276.161 208.618L283.667 208.379L283.625 207.059Z" fill="#1B380E"/>
<path d="M283.625 207.059L276.119 207.299L276.161 208.618L283.667 208.379L283.625 207.059Z" fill="#241950"/>
<path d="M281.34 196C279.39 188.51 273.83 183.15 267.05 180.59C264.05 179.29 260.75 178.569 257.28 178.569C250.55 178.569 244.46 181.279 239.95 185.699C238.99 186.489 238.14 187.339 237.51 188.239C236.88 189.119 236.35 189.99 235.88 190.85C233.49 194.82 232.1 199.49 232.09 204.51C232.09 207.71 232.99 212.499 233.71 214.649H233.74C236.22 223.449 242.73 231.12 252.31 231.68C258.1 233.27 264.95 231.16 267.57 225.47C271.73 218.5 262.59 212 267.08 207.14C269.89 205.48 271.12 209.41 273.42 209.97C275.13 210.22 277.08 209.1 277.69 207.59C279.5 203.09 282.53 199.89 281.35 196H281.34Z" fill="#241950"/>
<path d="M674.689 218.489C675.929 216.209 678.639 215.279 680.759 216.409L704.589 226.69C709.719 229.47 711.449 236.21 708.449 241.75C705.449 247.28 700.229 251.279 695.089 248.489L669.959 236.48C667.809 235.34 667.069 232.52 668.319 230.22L674.679 218.5L674.689 218.489Z" fill="#BBABFF"/>
<path d="M863.048 368.52C857.958 368.52 853.838 364.4 853.838 359.31V308.83C853.838 300.99 847.458 294.619 839.618 294.619H562.528C557.438 294.619 553.318 290.499 553.318 285.409C553.318 280.319 557.438 276.199 562.528 276.199H839.618C857.618 276.199 872.258 290.84 872.258 308.84V359.319C872.258 364.409 868.138 368.529 863.048 368.529V368.52Z" fill="#A693FF"/>
<path d="M742.289 485.25H556.209C537.649 485.25 522.549 470.519 522.549 452.409V308.619C522.549 300.619 515.669 294.109 507.219 294.109C502.159 294.109 498.049 290.009 498.049 284.939C498.049 279.869 502.149 275.77 507.219 275.77C525.779 275.77 540.879 290.499 540.879 308.609V452.399C540.879 460.399 547.759 466.909 556.209 466.909H742.289C747.349 466.909 751.459 471.01 751.459 476.08C751.459 481.15 747.359 485.25 742.289 485.25Z" fill="#CFC4FF"/>
<path d="M374.849 495.399H162.369C157.219 495.399 153.049 491.23 153.049 486.08C153.049 480.93 157.219 476.76 162.369 476.76H374.849C386.859 476.76 396.629 466.989 396.629 454.979V404.06C396.629 381.77 414.769 363.63 437.059 363.63H853.329C858.479 363.63 862.649 367.799 862.649 372.949C862.649 378.099 858.479 382.27 853.329 382.27H437.059C425.049 382.27 415.279 392.04 415.279 404.05V454.97C415.279 477.26 397.139 495.399 374.849 495.399Z" fill="#3C23A0"/>
<path d="M166.039 515.79C184.399 515.79 199.289 500.9 199.289 482.54C199.289 464.18 184.399 449.29 166.039 449.29C147.679 449.29 132.789 464.18 132.789 482.54C132.789 500.9 147.679 515.79 166.039 515.79Z" fill="#4A32AE"/>
<path d="M346.18 313.56C364.54 313.56 379.43 298.67 379.43 280.31C379.43 261.95 364.54 247.06 346.18 247.06C327.82 247.06 312.93 261.95 312.93 280.31C312.93 298.67 327.82 313.56 346.18 313.56Z" fill="#A693FF"/>
<path d="M406.568 408.67C424.928 408.67 439.818 393.78 439.818 375.42C439.818 357.06 424.928 342.17 406.568 342.17C388.208 342.17 373.318 357.06 373.318 375.42C373.318 393.78 388.208 408.67 406.568 408.67Z" fill="#8770EC"/>
<path d="M861.75 404.699C880.11 404.699 895 389.809 895 371.449C895 353.089 880.11 338.199 861.75 338.199C843.39 338.199 828.5 353.089 828.5 371.449C828.5 389.809 843.38 404.699 861.75 404.699Z" fill="#4A32AE"/>
<path d="M633.789 243.1C652.159 243.1 667.039 228.21 667.039 209.85C667.039 191.49 652.159 176.6 633.789 176.6C615.419 176.6 600.539 191.49 600.539 209.85C600.539 228.21 615.429 243.1 633.789 243.1Z" fill="#A693FF"/>
<path d="M472.529 583C490.239 583 504.599 568.64 504.599 550.93C504.599 533.22 490.239 518.859 472.529 518.859C454.819 518.859 440.459 533.22 440.459 550.93C440.459 568.64 454.819 583 472.529 583Z" fill="#4A32AE"/>
<path d="M564.948 272.659L543.999 251.71C537.569 245.27 527.128 245.27 520.688 251.71L499.739 272.659C493.309 279.099 493.309 289.53 499.739 295.96L520.688 316.909C527.118 323.349 537.559 323.349 543.999 316.909L564.948 295.96C571.378 289.52 571.378 279.089 564.948 272.659Z" fill="#4A32AE"/>
<path d="M201.03 271.79L180.08 250.84C173.64 244.4 163.21 244.4 156.78 250.84L135.83 271.79C129.39 278.22 129.39 288.66 135.83 295.09L156.78 316.04C163.22 322.48 173.65 322.48 180.08 316.04L201.03 295.09C207.47 288.65 207.47 278.22 201.03 271.79Z" fill="#8770EC"/>
<path d="M773.591 462.96L752.641 442.01C746.211 435.57 735.771 435.57 729.341 442.01L708.391 462.96C701.961 469.4 701.961 479.83 708.391 486.26L729.341 507.21C735.771 513.65 746.211 513.65 752.641 507.21L773.591 486.26C780.021 479.82 780.021 469.39 773.591 462.96Z" fill="#8770EC"/>
<path d="M325.979 310.399C330.109 312.629 334.759 313.739 339.439 313.399C342.639 313.159 345.319 312.429 345.189 310.819C345.129 310.139 344.559 309.569 343.849 309.339C342.789 308.989 340.879 310.96 340.089 311.17C339.979 311.2 339.989 311.199 340.099 311.179C342.419 310.959 348.489 309.839 348.409 307.509C348.379 306.779 347.769 306.129 347.009 305.889C345.319 305.369 342.319 306.119 340.539 305.739C340.439 305.719 340.559 305.76 340.539 305.79C339.569 308.01 349.819 306.409 349.669 303.859C349.569 302.169 347.879 301.919 346.729 301.779C344.509 301.519 341.139 301.029 339.119 300.759C338.999 300.749 338.939 300.989 339.119 300.969C340.969 300.719 346.359 302.799 348.099 302.019C349.419 301.429 349.269 299.599 347.899 298.929C345.029 297.519 339.619 296.239 336.799 295.529C336.609 295.479 335.729 295.179 335.199 295.049C334.469 294.879 335.699 294.229 336.489 292.469C337.929 289.279 335.729 286.42 333.799 289.54C333.319 290.3 332.929 290.479 332.239 290.929C331.979 291.109 331.229 291.619 330.969 291.939C329.819 293.339 326.839 294.149 325.649 294.719C321.149 296.879 314.999 291.199 314.049 298.049C313.649 300.929 315.759 305.47 315.499 307.63C315.269 309.55 318.959 307.279 323.969 309.059C324.149 309.119 325.599 310.189 325.969 310.389L325.979 310.399Z" fill="#CFC4FF"/>
<path d="M256.17 225.189C271.99 224.599 277.92 234.109 279.96 252.489C282.31 268.829 270.29 283.339 274.92 299.259C274.36 303.599 285.83 304.719 286.52 309.949C286.75 311.709 286.64 312.909 283.91 312.979C282.39 313.019 284 322.339 284 322.339C284.28 324.609 282.91 324.319 281.54 324.389C263.27 325.259 247.57 327.699 229.79 323.029C227.46 322.319 227.1 320.119 227.65 317.729C236.66 278.189 218.83 226.599 256.18 225.199L256.17 225.189Z" fill="#735BD7"/>
<path d="M280.95 248.369C280.72 245.759 280.26 243.169 279.5 240.659C276.2 229.799 269.52 225.729 257.92 225.369V225.75C246.2 226.76 238.37 236.97 240.01 247.29L241.9 283.17L283.69 279.81L280.95 248.359V248.369Z" fill="#735BD7"/>
<path d="M314.12 290.619L286.32 285.909C285.14 285.709 284.25 284.74 284.15 283.56L281.01 248.52L251.67 253.369L261.08 310.359L262.38 309.479C263.56 310.769 265.21 311.63 267.1 311.76L311.3 314.72C315.05 314.97 318.35 312.229 318.78 308.489L319.95 298.38C320.38 294.66 317.82 291.249 314.13 290.619H314.12Z" fill="#735BD7"/>
<path d="M745.929 196.38C742.489 201.52 731.989 203.46 727.659 199.45C726.749 198.61 726.809 196.14 726.339 195.03C724.549 190.84 724.979 186.65 728.339 183.1C732.589 178.6 733.189 178.25 737.519 182.27C741.269 185.76 746.529 189.28 745.559 192.93C745.409 193.49 746.019 196.25 745.929 196.39V196.38Z" fill="#735BD7"/>
<path d="M724.879 170.79C727.189 162.24 739.509 154.6 751.289 163.94C754.439 166.44 758.789 188.11 752.219 194.68C749.409 196.32 748.679 190.78 748.209 188.86C747.569 186.39 748.619 183.57 747.369 181.3C747.379 181.25 747.399 181.2 747.409 181.15C744.309 179.03 743.649 180.199 741.189 177.119C739.659 175.639 738.529 173.22 736.249 172.97C734.859 172.35 725.519 172.85 724.869 170.79H724.879Z" fill="#1B380E"/>
<path d="M729.51 197.82C727.92 197.2 726.48 196.23 725.39 194.92C723.06 192.13 722.58 188.89 723.56 181.43C724.19 176.67 724.42 171.729 726.41 167.739C731.02 158.479 743.14 157.599 750.55 163.909C751.13 164.409 757.46 182.46 754.46 188.5C754.36 188.5 754.27 188.499 754.17 188.489C753.77 188.489 753.37 188.469 752.97 188.449C752.57 188.429 752.17 188.4 751.77 188.39C751.37 188.38 750.97 188.37 750.57 188.39C750.38 188.39 750.19 188.41 750.01 188.44C749.86 188.46 749.69 188.48 749.56 188.54C749.53 188.55 749.51 188.58 749.48 188.6C749.48 188.6 749.48 188.6 749.47 188.6C749.45 188.62 749.43 188.639 749.41 188.659C749.4 188.659 749.38 188.68 749.37 188.69C748.8 189.18 748.21 189.659 747.65 190.159C747.03 190.709 746.44 191.29 745.92 191.92C745.47 192.49 745.89 193.33 746.61 193.31C755.45 193.08 749.94 194.14 747.78 194.44C747.54 194.47 745.21 192.19 745.16 192.42C745.14 192.49 745.56 189.58 745.46 189.76C745.19 190.22 744.96 190.66 744.73 191.08C742.97 194.33 740.04 196.78 736.53 197.94C734.63 198.57 732.58 198.7 730.65 198.19C730.28 198.09 729.91 197.97 729.55 197.83L729.51 197.82Z" fill="#8770EC"/>
<path d="M751.151 163.699C741.291 155.469 726.051 159.59 723.721 172.6C723.721 177.54 729.901 172.43 732.451 171.6C732.521 171.58 732.591 171.56 732.671 171.56C735.111 171.36 736.341 174.68 739.231 176.79C741.001 178.09 744.261 177.14 743.701 180.25C743.501 185.24 741.491 189.879 744.101 194.489C745.481 196.939 746.361 196.44 747.941 196.65C749.421 196.84 751.031 196.589 751.991 195.239C759.351 188.229 757.121 169.26 751.151 163.69V163.699Z" fill="#3C23A0"/>
<path d="M726.13 187.819C726.44 187.709 726.89 187.939 727.52 187.799C727.76 187.749 728.02 188.069 728.28 188.119C728.6 188.179 728.97 187.949 729.28 188.119C730.2 188.669 731.199 188.219 731.799 188.509C732.049 188.639 732.049 188.929 731.819 189.049C730.309 189.819 726.519 189.729 725.949 188.189C725.889 188.039 725.97 187.869 726.14 187.809L726.13 187.819Z" fill="#4A32AE"/>
<path d="M727.55 190.63C727.69 190.8 727.84 190.96 728.06 191.01C728.39 191.09 728.74 190.96 729.04 190.83C729.11 190.8 729.19 190.759 729.23 190.689C729.26 190.629 729.28 190.559 729.27 190.489C729.25 190.339 729.12 190.21 728.96 190.22C728.78 190.22 728.61 190.22 728.44 190.22C728.41 190.22 728.38 190.22 728.35 190.22C728.26 190.22 728.33 190.22 728.35 190.22C728.29 190.22 728.23 190.199 728.17 190.189C728.07 190.169 727.97 190.139 727.86 190.119C727.7 190.069 727.51 190.18 727.48 190.34C727.44 190.5 727.53 190.68 727.7 190.72C728.11 190.84 728.54 190.879 728.97 190.859L728.89 190.239C728.73 190.299 728.57 190.369 728.4 190.409C728.37 190.409 728.26 190.419 728.38 190.409C728.35 190.409 728.33 190.409 728.3 190.409H728.24C728.18 190.409 728.33 190.429 728.28 190.409C728.28 190.409 728.26 190.409 728.25 190.409C728.23 190.409 728.22 190.41 728.2 190.39C728.31 190.42 728.25 190.41 728.22 190.39C728.21 190.39 728.19 190.369 728.17 190.359C728.27 190.429 728.21 190.389 728.18 190.359C728.12 190.299 728.06 190.23 728.01 190.17C727.9 190.04 727.68 190.05 727.57 190.17C727.45 190.3 727.45 190.479 727.57 190.609L727.55 190.63Z" fill="#735BD7"/>
<path d="M726.548 185.05C726.378 184.7 726.248 184.48 726.458 184.34C726.868 184.05 727.508 184.56 727.988 184.71C727.978 184.71 728.268 184.809 728.258 184.809C728.878 184.909 729.688 184.669 730.088 184.689C730.498 184.709 731.138 184.86 731.118 185.34C731.078 186.21 727.428 187.24 726.538 185.05H726.548Z" fill="#735BD7"/>
<path d="M727.519 180.59C727.429 181.39 725.919 181.699 725.369 181.619C724.819 181.539 724.449 180.83 724.539 180.04C724.629 179.24 725.229 178.689 725.779 178.769C726.329 178.849 727.609 179.8 727.519 180.6V180.59Z" fill="white"/>
<path d="M726.651 180.411C726.511 181.411 725.881 181.731 725.311 181.621C724.741 181.501 724.371 180.771 724.501 179.981C724.631 179.191 725.151 178.621 725.781 178.761C726.351 178.891 726.761 179.621 726.651 180.411Z" fill="#0D0D0D"/>
<path d="M735.891 182.21C735.771 183.03 734.101 183.329 733.501 183.229C732.901 183.139 732.501 182.389 732.621 181.569C732.741 180.749 733.411 180.179 734.011 180.269C734.611 180.359 736.011 181.379 735.891 182.199V182.21Z" fill="white"/>
<path d="M734.949 182.01C734.769 183.04 734.069 183.369 733.439 183.239C732.809 183.109 732.429 182.34 732.589 181.52C732.749 180.7 733.339 180.12 734.029 180.27C734.659 180.41 735.089 181.18 734.949 182V182.01Z" fill="#0D0D0D"/>
<path d="M738.129 179.409C738.019 179.179 737.819 178.99 737.659 178.83C737.469 178.63 737.258 178.449 737.048 178.279C736.658 177.979 736.228 177.74 735.788 177.58C734.828 177.22 733.769 177.24 732.829 177.65C732.799 177.66 732.769 177.68 732.729 177.71C732.709 177.73 732.688 177.75 732.668 177.77C732.308 178.13 732.468 178.82 732.918 178.97C733.168 179.05 733.428 179.099 733.688 179.159C734.748 179.429 735.789 179.76 736.829 180.14C737.059 180.22 737.279 180.33 737.509 180.39C737.959 180.52 738.379 179.96 738.119 179.42L738.129 179.409Z" fill="#4A32AE"/>
<path d="M727.039 176.199C726.199 175.759 725.27 175.949 724.64 176.769C724.62 176.789 724.609 176.82 724.589 176.84C724.449 177.09 724.509 177.48 724.719 177.64C724.809 177.7 724.91 177.72 725.01 177.72C725.22 177.72 725.44 177.74 725.64 177.75C725.86 177.75 726.079 177.769 726.309 177.779H726.359C726.359 177.779 726.45 177.799 726.5 177.809C726.92 177.899 727.34 178 727.76 178.09C728.25 178.19 728.47 177.52 728.14 177.1C727.83 176.71 727.449 176.39 727.039 176.18V176.199Z" fill="#4A32AE"/>
</svg>
