<svg width="1017" height="712" viewBox="0 0 1017 712" fill="none" xmlns="http://www.w3.org/2000/svg">
<g clip-path="url(#clip0_967_99)">
<path d="M763.015 577.452H244.712C241.363 577.452 238.655 578.311 238.655 579.368C238.655 580.425 241.368 581.284 244.712 581.284H763.015C766.364 581.284 769.072 580.425 769.072 579.368C769.072 578.311 766.359 577.452 763.015 577.452Z" fill="#CFC4FF"/>
<path d="M891.512 246.384C887.635 241.75 882.645 238.167 877.172 235.626L820.396 210.828C820.05 210.661 819.71 210.503 819.369 210.335L773.29 183.363C770.414 181.681 766.765 182.184 764.458 184.577L752.451 197.027C749.671 199.908 749.773 204.502 752.674 207.261L796.99 249.392C797.234 249.616 797.737 250.038 798.434 250.612C798.525 250.734 798.611 250.861 798.703 250.983L864.743 305.498C877.66 315.178 884.032 298.937 893.494 284.236L894.993 277.366C902.087 266.339 898.967 255.292 891.512 246.374V246.384Z" fill="#CFC4FF"/>
<path d="M213.984 207.287C213.633 210.295 211.113 212.724 210.579 215.275C209.949 218.278 211.209 221.551 210.335 223.964C209.278 226.881 206.174 228.456 204.791 230.606C203.135 233.177 202.799 236.628 200.731 238.254C198.48 240.032 195.014 239.468 192.342 240.347C189.755 241.196 187.397 243.732 184.485 243.95C181.792 244.158 178.957 242.029 176.045 241.872C173.321 241.719 170.344 243.544 167.472 243.208C164.601 242.873 162.142 240.413 159.469 239.926C156.608 239.402 153.361 240.794 150.8 239.951C148.041 239.046 146.359 236.028 144.052 234.595C141.668 233.116 138.172 232.867 136.389 230.642C134.737 228.584 135.179 225.153 134.137 222.308C133.258 219.909 130.58 217.694 130.199 214.64C129.884 212.099 131.846 209.202 131.902 206.143C131.952 203.547 130.047 200.62 130.397 197.622C130.718 194.832 133.34 192.56 134.132 189.979C134.951 187.311 134.061 183.957 135.327 181.554C136.617 179.089 139.885 177.92 141.587 175.791C143.31 173.621 143.721 170.176 145.805 168.403C147.888 166.624 151.369 166.746 153.768 165.41C156.161 164.073 157.873 161.05 160.506 160.216C163.138 159.388 166.233 160.892 169.002 160.633C171.771 160.374 174.48 158.301 177.265 158.626C180.049 158.946 182.285 161.604 184.851 162.462C187.418 163.326 190.868 162.605 193.216 163.997C195.589 165.405 196.564 168.733 198.592 170.588C200.619 172.443 204.024 173.088 205.66 175.314C207.281 177.519 206.895 180.964 208.079 183.47C209.248 185.934 212.16 187.814 212.856 190.513C213.537 193.14 211.911 196.199 212.094 198.989C212.271 201.687 214.309 204.492 213.984 207.282H213.989L213.984 207.287Z" fill="#241950"/>
<path d="M221.377 535.27L218.09 534.35C215.752 531.769 223.065 530.788 219.604 530.697L185.888 531.053C180.502 531.053 177.346 534.203 177.346 539.635L175.943 558.056C175.943 562.045 179.15 565.282 183.113 565.282H244.361C248.32 565.282 251.531 562.045 251.531 558.056L251.542 556.963C251.542 547.161 245.84 542.435 236.637 540.646C233.919 540.118 223.258 537.333 221.393 535.27H221.383H221.377Z" fill="#3B38A5"/>
<path d="M213.141 538.604C217.719 538.604 221.368 534.833 221.144 530.331L212.063 364.576C211.718 357.141 206.311 351.328 199.771 351.354L166.741 351.501H136.623C130.276 351.501 125.037 357.147 124.691 364.357L115.011 532.475C114.772 537.069 118.004 541.007 122.384 541.922C123.355 542.125 124.356 542.11 125.332 541.968L130.865 541.139C138.274 540.032 145.831 540.448 153.077 542.374L157.625 543.578C160.603 544.371 163.824 543.655 166.075 541.5C167.757 539.894 168.825 537.664 168.901 535.179L169.876 380.964C169.927 380.334 171.503 380.354 171.503 380.943L172.849 534.61C172.976 538.878 176.523 542.262 180.858 542.262L213.12 538.593H213.126L213.141 538.604Z" fill="#8770EC"/>
<path d="M127.374 536.169H152.686C163.032 536.169 171.426 544.569 171.426 554.91V558.559C171.426 562.273 168.408 565.287 164.698 565.287H115.367C111.652 565.287 108.639 562.268 108.639 558.559V554.91C108.639 544.564 117.038 536.169 127.379 536.169H127.374Z" fill="#3B38A5"/>
<path d="M118.639 356.771C118.619 357.126 118.598 357.477 118.624 357.833C118.893 361.878 122.186 365.064 126.195 365.023L203.298 364.241C209.904 364.241 214.96 357.721 213.964 350.48L211.555 317.734L218.054 285.299C218.054 258.58 198.511 236.922 174.399 236.922H162.259C138.147 236.922 122.846 265.201 122.846 291.915L120.423 339.742L118.644 356.766L118.639 356.771Z" fill="#BBABFF"/>
<path d="M123.639 337.689L197.769 339.351C216.083 336.292 247.436 336.449 243.437 318.583L237.623 306.854C231.973 295.456 227.44 299.771 216.509 268.982C209.939 250.485 195.619 236.942 175.227 236.942H162.909C138.437 236.942 118.598 256.486 118.598 280.598L123.634 337.694L123.639 337.689Z" fill="#BBABFF"/>
<path d="M166.802 356.933L121.139 343.894C113.883 341.82 108.171 336.973 104.827 330.844C100.894 323.629 100.635 314.964 103.811 307.383L122.552 262.625L141.272 281.599L166.802 356.933Z" fill="#BBABFF"/>
<path d="M118.954 353.346C132.822 346.384 148.097 346.338 158.387 344.727C158.9 344.646 158.849 343.894 158.331 343.889C153.478 343.818 144.56 344.545 136.308 344.565C129.132 344.585 122.394 343.935 120.001 343.518L118.959 353.346H118.954Z" fill="#8770EC"/>
<path d="M145.109 192.077C149.149 176.599 175.426 168.067 193.897 182.092C209.101 193.638 211.86 216.591 200.554 232.725C199.375 234.412 198.069 235.977 196.661 237.41C195.645 238.447 193.922 238.381 193.008 237.263C192.205 236.282 191.565 235.144 191.051 234.005C190.05 231.805 189.415 229.437 188.973 227.069C188.78 226.017 188.622 224.955 188.51 223.888C188.373 222.602 188.414 221.307 188.429 220.021C188.455 217.81 188.429 215.351 187.144 213.481C187.169 213.395 187.189 213.298 187.22 213.212C186.971 213.034 186.722 212.861 186.468 212.688C185.98 212.211 185.421 211.845 184.831 211.499C184.618 211.377 184.394 211.271 184.181 211.154C178.815 207.683 180.588 207.744 175.807 202.901C174.399 201.478 173.073 199.979 171.685 198.541C170.883 197.713 170.024 196.859 169.013 196.326C168.205 195.899 167.326 195.726 166.446 195.609C164.968 195.406 157.538 194.608 153.768 194.7C152.741 194.725 151.73 194.532 150.719 194.39C149.682 194.247 148.646 194.039 147.629 193.739L145.693 193.053C145.49 192.967 145.302 192.87 145.17 192.687C145.033 192.504 144.992 192.296 145.114 192.072L145.104 192.083L145.109 192.077Z" fill="#332711"/>
<path d="M189.913 243.889C181.747 254.276 163.342 258.498 154.439 250.53C145.531 242.557 147.203 226.139 156.1 216.367C164.998 206.59 179.43 205.132 188.343 213.105C195.681 219.67 191.188 219.243 190.147 229.457C189.852 232.338 192.052 241.185 189.923 243.894H189.918L189.913 243.889Z" fill="#3C23A0"/>
<path d="M197.64 229.564C186.639 245.261 165.027 255.556 150.453 244.052C142.261 237.588 140.493 226.749 141.113 215.377C141.596 206.514 143.12 197.286 146.754 189.857C155.174 172.641 178.493 170.766 193.067 182.27C207.641 193.775 208.642 213.862 197.64 229.554V229.564Z" fill="#8770EC"/>
<path d="M145.109 192.077C149.149 176.599 175.425 168.067 193.897 182.092C209.101 193.638 211.86 216.591 200.554 232.725C199.375 234.412 198.069 235.977 196.661 237.41C195.645 238.447 193.922 238.381 193.007 237.263C192.205 236.282 191.564 235.144 191.051 234.005C190.05 231.805 189.415 229.437 188.973 227.069C188.78 226.017 188.622 224.955 188.51 223.888C188.373 222.602 188.414 221.307 188.429 220.021C188.454 217.81 189.029 215.778 187.738 213.908C187.763 213.821 187.194 213.293 187.22 213.217C186.971 213.039 186.722 212.866 186.468 212.693C185.98 212.216 185.421 211.85 184.831 211.504C184.618 211.382 184.394 211.276 184.181 211.159C178.617 208.222 180.365 210.452 175.593 205.61C174.185 204.187 173.083 199.984 171.69 198.546C170.887 197.718 170.029 196.864 169.017 196.331C168.21 195.904 167.33 195.731 166.451 195.614C164.973 195.411 157.543 194.613 153.773 194.705C152.746 194.73 151.735 194.537 150.724 194.395C149.687 194.252 148.651 194.044 147.634 193.744L145.698 193.058C145.495 192.972 145.307 192.875 145.175 192.692C145.038 192.509 144.997 192.301 145.119 192.077H145.104H145.109Z" fill="#241950"/>
<path d="M142.365 192.367C146.405 176.889 172.681 168.357 191.153 182.382C206.357 193.927 209.116 216.88 197.81 233.014C196.631 234.701 195.325 236.267 193.917 237.7C192.901 238.736 191.636 239.366 190.721 238.238C189.918 237.257 188.831 235.428 188.312 234.29C187.311 232.09 186.676 229.722 186.234 227.354C186.041 226.302 185.883 225.24 185.772 224.172C185.634 222.887 185.675 221.591 185.69 220.305C185.716 218.095 186.29 216.062 184.999 214.192C185.025 214.106 184.455 213.577 184.481 213.501C184.232 213.323 183.983 213.151 183.729 212.978C183.241 212.5 182.682 212.134 182.092 211.789C181.879 211.667 181.655 211.56 181.442 211.443C175.878 208.506 177.626 210.737 172.854 205.894C171.447 204.471 170.344 200.269 168.952 198.831C168.149 198.002 167.29 197.149 166.279 196.615C165.471 196.188 164.592 196.016 163.713 195.899C162.234 195.695 154.805 194.898 151.034 194.989C150.008 195.015 148.996 194.821 147.985 194.679C146.948 194.537 145.912 194.329 144.896 194.029L142.959 193.343C142.756 193.256 142.568 193.16 142.436 192.977C142.299 192.794 142.258 192.586 142.38 192.362L142.365 192.372V192.367Z" fill="#241950"/>
<path d="M203.486 325.773L200.051 284.597C200.03 284.028 200.854 283.932 200.965 284.486L210.061 329.605C210.143 329.991 209.726 330.291 209.385 330.103L201.57 325.804" fill="#8770EC"/>
<path d="M147.015 227.506C147.609 227.313 148.417 227.806 149.601 227.598C150.048 227.516 150.495 228.192 150.983 228.304C151.578 228.451 152.284 228.03 152.828 228.416C154.479 229.59 156.385 228.787 157.457 229.437C157.899 229.707 157.894 230.296 157.447 230.515C154.571 231.927 147.574 231.384 146.639 228.248C146.542 227.938 146.7 227.613 147.02 227.506H147.015Z" fill="#4A32AE"/>
<path d="M149.332 233.126C149.464 233.304 149.586 233.497 149.738 233.66C149.906 233.837 150.114 233.97 150.353 234.051C150.632 234.147 150.927 234.122 151.212 234.076C151.552 234.026 151.877 233.909 152.203 233.782C152.482 233.67 152.68 233.436 152.635 233.121C152.594 232.826 152.345 232.603 152.04 232.598C151.923 232.598 151.806 232.598 151.689 232.592C151.578 232.592 151.471 232.582 151.364 232.572C151.313 232.572 151.257 232.562 151.202 232.557C151.075 232.542 151.339 232.577 151.181 232.557C150.785 232.496 150.394 232.394 150.013 232.257C149.718 232.15 149.342 232.379 149.271 232.679C149.189 233.019 149.377 233.304 149.692 233.421C150.444 233.695 151.242 233.807 152.035 233.817L151.877 232.633C151.583 232.75 151.278 232.862 150.968 232.913C150.917 232.923 150.785 232.928 151.003 232.913C150.983 232.913 150.958 232.918 150.932 232.918C150.887 232.918 150.836 232.923 150.785 232.923H150.714C150.653 232.923 150.592 232.887 150.795 232.933C150.759 232.923 150.719 232.918 150.683 232.908C150.668 232.908 150.653 232.897 150.643 232.892C150.561 232.867 150.81 232.979 150.719 232.923C150.688 232.908 150.663 232.892 150.627 232.872C150.587 232.847 150.546 232.786 150.704 232.928C150.688 232.913 150.673 232.902 150.658 232.892C150.632 232.867 150.607 232.847 150.582 232.816C150.561 232.791 150.536 232.76 150.505 232.73C150.475 232.694 150.429 232.623 150.556 232.801C150.541 232.786 150.531 232.765 150.516 232.75C150.465 232.679 150.414 232.613 150.368 232.542C150.272 232.41 150.165 232.308 150.007 232.267C149.865 232.227 149.667 232.247 149.54 232.323C149.286 232.486 149.128 232.872 149.321 233.146V233.126H149.332Z" fill="#654ECA"/>
<path d="M148.031 221.18C147.777 220.448 147.645 220.026 148.051 219.777C148.859 219.284 149.957 220.418 150.81 220.824C150.79 220.819 151.313 221.073 151.303 221.073C151.319 221.073 151.725 221.159 151.801 221.17C153.016 221.312 154.119 221.022 154.713 221.21C155.46 221.444 156.629 221.749 156.497 222.704C156.263 224.422 149.271 225.733 148.031 221.18Z" fill="#654ECA"/>
<path d="M167.549 214.375C167.285 216.133 163.743 217.012 162.391 216.748C161.04 216.484 160.15 214.837 160.42 213.079C160.689 211.321 161.995 210.101 163.352 210.371C164.703 210.635 167.818 212.617 167.554 214.38H167.549V214.375Z" fill="white"/>
<path d="M165.349 213.761C165.496 211.982 164.5 210.447 163.128 210.336C161.756 210.224 160.521 211.57 160.374 213.349C160.226 215.127 161.222 216.662 162.594 216.774C163.966 216.886 165.201 215.539 165.349 213.761Z" fill="#241950"/>
<path d="M149.702 211.479C149.453 213.207 146.384 214.136 145.154 213.903C143.93 213.669 143.137 212.078 143.381 210.356C143.63 208.633 144.824 207.419 146.044 207.647C147.268 207.881 149.941 209.746 149.692 211.474H149.697L149.702 211.479Z" fill="white"/>
<path d="M147.848 210.996C148.016 209.258 147.147 207.754 145.907 207.637C144.667 207.52 143.529 208.831 143.366 210.569C143.198 212.307 144.067 213.811 145.307 213.928C146.547 214.045 147.685 212.734 147.848 210.996Z" fill="#241950"/>
<path d="M171.294 208.938C171.086 208.557 170.689 208.232 170.374 207.942C169.993 207.596 169.582 207.286 169.16 207.002C168.377 206.478 167.503 206.067 166.614 205.772C164.653 205.127 162.488 205.096 160.511 205.726C160.44 205.747 160.379 205.772 160.308 205.813C160.262 205.838 160.232 205.874 160.191 205.904C159.429 206.473 159.688 207.632 160.618 207.891C161.131 208.033 161.67 208.13 162.188 208.252C164.343 208.76 166.482 209.36 168.586 210.056C169.048 210.208 169.505 210.391 169.978 210.508C170.893 210.747 171.797 209.848 171.304 208.933L171.294 208.943V208.938ZM170.349 208.852C170.466 208.852 170.491 208.897 170.349 208.852V208.852Z" fill="#241950"/>
<path d="M148.259 202.83C146.537 202.103 144.611 202.408 143.295 203.77C143.259 203.811 143.224 203.857 143.198 203.897H143.193C142.898 204.319 143.036 204.959 143.473 205.223C143.656 205.335 143.854 205.356 144.057 205.361C144.494 205.376 144.936 205.391 145.373 205.406C145.825 205.422 146.283 205.442 146.735 205.457C146.765 205.457 146.811 205.462 146.842 205.457C146.938 205.478 147.035 205.493 147.131 205.508C148 205.661 148.859 205.828 149.733 205.976C150.744 206.138 151.202 205.03 150.511 204.339C149.865 203.694 149.093 203.171 148.259 202.815V202.825V202.83Z" fill="#241950"/>
<path d="M197.311 519.766L254.148 576.603C261.491 583.946 273.397 583.946 280.74 576.603L337.577 519.766C344.92 512.423 344.92 500.517 337.577 493.175L280.74 436.337C273.397 428.995 261.491 428.995 254.148 436.337L197.311 493.175C189.968 500.517 189.968 512.423 197.311 519.766Z" fill="#503EBA"/>
<path d="M499.684 519.497L556.521 576.334C563.864 583.677 575.77 583.677 583.113 576.334L639.95 519.497C647.293 512.154 647.293 500.248 639.95 492.905L583.113 436.068C575.77 428.725 563.864 428.725 556.521 436.068L499.684 492.905C492.341 500.248 492.341 512.154 499.684 519.497Z" fill="#8770EC"/>
<path d="M418.664 581.507C460.038 581.507 493.581 547.964 493.581 506.59C493.581 465.216 460.038 431.673 418.664 431.673C377.29 431.673 343.747 465.216 343.747 506.59C343.747 547.964 377.29 581.507 418.664 581.507Z" fill="#A693FF"/>
<path d="M721.057 581.507C762.431 581.507 795.974 547.964 795.974 506.59C795.974 465.216 762.431 431.673 721.057 431.673C679.683 431.673 646.14 465.216 646.14 506.59C646.14 547.964 679.683 581.507 721.057 581.507Z" fill="#A693FF"/>
<path d="M266.949 430.834C308.323 430.834 341.866 397.291 341.866 355.917C341.866 314.543 308.323 281 266.949 281C225.575 281 192.032 314.543 192.032 355.917C192.032 397.291 225.575 430.834 266.949 430.834Z" fill="#A693FF"/>
<path d="M197.311 218.512L254.148 275.349C261.491 282.692 273.397 282.692 280.74 275.349L337.577 218.512C344.92 211.169 344.92 199.263 337.577 191.92L280.74 135.083C273.397 127.74 261.491 127.74 254.148 135.083L197.311 191.92C189.968 199.263 189.968 211.169 197.311 218.512Z" fill="#503EBA"/>
<path d="M209.883 351.379C213.364 351.78 231.953 354.098 231.561 348.472C231.485 347.405 230.677 346.491 229.701 346.12C228.223 345.561 225.53 348.655 224.437 348.991C224.279 349.036 224.3 349.031 224.457 349.016C227.694 348.681 236.201 346.953 236.094 343.264C236.064 342.105 235.21 341.074 234.138 340.687C231.78 339.844 227.577 341.013 225.087 340.408C224.945 340.372 225.113 340.438 225.092 340.489C223.726 344.001 238.061 341.541 237.868 337.501C237.74 334.833 235.378 334.422 233.772 334.198C230.662 333.766 225.956 332.974 223.141 332.521C222.984 332.496 222.887 332.892 223.141 332.857C225.738 332.476 233.243 335.804 235.693 334.579C237.532 333.66 237.339 330.758 235.433 329.686C231.429 327.43 223.868 325.372 219.935 324.233C219.676 324.157 218.237 323.771 217.501 323.578C216.479 323.309 218.197 322.292 219.325 319.508C221.363 314.477 218.507 309.827 215.773 314.751C214.848 316.423 213.496 316.25 212.094 318.141C210.468 320.341 206.021 321.997 204.355 322.892C198.048 326.276 194.532 323.781 193.165 334.605C192.591 339.158 192.703 338.487 192.327 341.897C191.991 344.925 192.774 346.333 197.52 346.333C200.528 346.333 206.545 351.013 209.883 351.399V351.384V351.379ZM229.773 327.684C229.773 327.684 229.762 327.689 229.757 327.694C229.803 327.587 229.849 327.501 229.773 327.684Z" fill="#8770EC"/>
<path d="M197.464 346.44C195.96 346.196 180.329 344.839 162.203 344.839C154.977 344.839 152.899 343.269 153.011 341.409C153.819 328.349 157.889 324.523 160.15 321.85C162.533 319.025 165.359 318.705 169.698 319.467L203.587 325.9L197.459 346.445" fill="#8770EC"/>
<path d="M499.684 218.242L556.521 275.079C563.864 282.422 575.77 282.422 583.113 275.079L639.95 218.242C647.293 210.899 647.293 198.993 639.95 191.65L583.113 134.813C575.77 127.47 563.864 127.47 556.521 134.813L499.684 191.65C492.341 198.993 492.341 210.899 499.684 218.242Z" fill="#8770EC"/>
<path d="M418.664 280.248C460.038 280.248 493.581 246.704 493.581 205.33C493.581 163.956 460.038 130.413 418.664 130.413C377.29 130.413 343.747 163.956 343.747 205.33C343.747 246.704 377.29 280.248 418.664 280.248Z" fill="#A693FF"/>
<path d="M721.057 280.248C762.431 280.248 795.974 246.704 795.974 205.33C795.974 163.956 762.431 130.413 721.057 130.413C679.683 130.413 646.14 163.956 646.14 205.33C646.14 246.704 679.683 280.248 721.057 280.248Z" fill="#A693FF"/>
<path d="M789.805 341.826L732.968 284.989C725.625 277.646 713.719 277.646 706.376 284.989L649.544 341.826C642.196 349.169 642.196 361.075 649.544 368.417L706.376 425.255C713.719 432.597 725.625 432.597 732.968 425.255L789.805 368.417C797.148 361.075 797.148 349.169 789.805 341.826Z" fill="#503EBA"/>
<path d="M487.432 342.09L430.595 285.253C423.252 277.91 411.346 277.91 404.003 285.253L347.166 342.09C339.823 349.433 339.823 361.339 347.166 368.682L404.003 425.519C411.346 432.862 423.252 432.862 430.595 425.519L487.432 368.682C494.78 361.339 494.78 349.433 487.432 342.09Z" fill="#8770EC"/>
<path d="M568.452 429.924C609.826 429.924 643.37 396.381 643.37 355.007C643.37 313.633 609.826 280.09 568.452 280.09C527.078 280.09 493.535 313.633 493.535 355.007C493.535 396.381 527.078 429.924 568.452 429.924Z" fill="#A693FF"/>
<path d="M838.933 578.423L892.681 578.824C899.241 578.87 904.414 573.56 904.094 567.284C904.074 566.878 904.013 566.471 903.947 566.07L900.923 547.568C900.7 545.484 898.845 543.929 896.695 544.016L844.355 546.064C843.827 546.084 843.314 546.201 842.831 546.414L834.365 550.149C828.399 552.781 824.608 557.421 824.786 563.793L824.979 570.872C825.188 578.301 831.27 578.372 838.928 578.428L838.933 578.423Z" fill="#CFC4FF"/>
<path d="M807.534 579.759L849.589 580.715C855.26 580.755 859.559 573.946 858.807 566.115L855.718 543.213C855.479 540.718 853.888 538.858 852.084 538.965L819.298 540.377C818.861 540.403 818.424 540.545 818.028 540.804L814.771 548.365C811.823 551.704 807.448 553.645 804.328 555.754C799.861 558.778 790.928 561.644 791.162 567.523L791.401 571.908C791.761 580.816 801.111 579.708 807.529 579.759H807.534Z" fill="#CFC4FF"/>
<path d="M855.84 236.175C844.183 228.055 845.458 216.189 851.881 205.94C853.431 202.632 857.557 196.132 859.209 189.216C859.529 188.302 863.721 192.58 864.046 191.666C864.326 191.828 864.453 192.113 864.682 192.433C864.809 192.718 867.365 192.255 867.39 192.509C867.883 193.851 864.58 197.977 866.282 199.1C873.508 196.539 874.799 199.623 882.177 203.064C901.96 212.861 896.655 240.413 873.346 240.743C874.24 241.546 875.089 242.293 876.1 242.867C874.84 242.629 874.077 241.495 873.112 240.759C867.212 241.013 860.743 239.453 855.845 236.18L855.84 236.175Z" fill="#796AE2"/>
<path d="M913.998 201.148C911.96 187.245 897.58 174.648 881.603 175.959C871.775 175.933 856.368 182.006 857.73 194.268C857.882 195.629 860.794 197.825 861.079 198.811C863.172 206.118 866.465 203.384 869.982 202.119C877.746 199.329 880.912 205.986 877.833 210.437C875.988 213.095 872.634 214.563 870.749 216.347C867.105 219.787 865.469 223.293 866.43 231.033C867.309 238.071 876.72 239.321 882.98 243.132C892.274 243.32 900.745 237.705 906.299 230.021C906.31 230.021 906.325 230.032 906.335 230.037C912.291 222.765 916.351 210.346 914.003 201.153H913.998V201.148Z" fill="#241950"/>
<path d="M856.699 201.595C856.612 201.519 856.531 201.473 856.45 201.438C856.338 201.615 856.226 201.793 856.124 201.976C856.063 202.088 856.008 202.205 855.947 202.317C855.891 202.418 855.82 202.505 855.743 202.596C855.596 202.774 855.423 202.937 855.266 203.109C854.976 203.435 854.768 203.816 854.615 204.227C854.458 204.639 854.346 205.066 854.229 205.493C854.138 205.818 854.046 206.148 853.929 206.463C855.408 206.941 858.279 207.469 859.041 206.341C859.905 205.071 857.649 202.408 856.694 201.6H856.699V201.595Z" fill="white"/>
<path d="M856.83 204.761C856.165 206.153 855.062 206.931 853.98 206.453C852.902 205.975 852.516 204.456 853.187 203.064C853.853 201.671 855.027 200.686 856.404 201.417C857.445 201.971 857.501 203.369 856.836 204.756H856.83V204.761Z" fill="#241950"/>
<path d="M857.257 549.067C857.954 558.173 857.237 558.676 867.908 557.456C875.068 556.638 883.021 556.013 891.7 556.232C893.662 556.277 899.714 557.156 901.675 556.374C905.725 555.276 908.667 551.038 908.449 546.119L903.881 504.019C900.318 471.73 893.331 425.524 897.036 390.029C896.868 379.475 905.461 349.372 887.914 348.472C873.046 348.513 842.861 348.416 827.932 348.31C821.722 348.279 819.938 351.587 819.613 359.703L807.631 547.715C807.418 552.629 810.883 556.75 815.233 556.75L845.773 560.215C851.907 560.912 857.242 555.723 857.247 549.067H857.257Z" fill="#503EBA"/>
<path d="M819.629 355.648C818.389 355.505 817.494 354.388 817.626 353.148L821.57 321.108C823.165 308.521 824.517 302.662 824.222 289.989C823.933 277.478 822.368 267.214 823.292 262.345C828.42 235.352 833.847 232.542 851.383 232.71C881.303 232.994 905.182 245.119 902.844 278.307C902.382 284.232 900.217 300.233 899.749 305.244C897.834 325.865 900.938 339.468 902.255 359.388C902.417 361.898 900.923 364.23 898.586 365.008C882.929 370.217 834.014 355.937 822.129 355.937L819.623 355.653L819.629 355.648Z" fill="#CFC4FF"/>
<path d="M745.814 218.7C747.836 221.281 750.957 216.296 755.073 211.662C759.682 206.641 763.051 206.067 747.77 197.937C743.609 195.721 741.657 188.836 740.245 185.761C738.024 180.944 737.221 181.29 735.971 179.171C733.7 175.314 730.214 178.81 731.814 182.509C732.876 184.974 733.827 185.711 733.959 187.667C733.959 187.723 733.837 187.713 733.776 187.677C729.843 185.614 721.829 178.759 717.759 176.076C715.914 174.861 713.617 177.047 714.578 178.927C715.843 181.412 721.265 185.955 722.952 188.038C723.049 188.16 722.906 188.317 722.779 188.231C720.193 186.513 716.046 183.769 713.226 181.828C711.773 180.827 709.029 178.891 708.048 179.343C707.392 179.648 706.92 180.248 706.955 180.883C707.093 183.724 712.901 187.733 716.331 191.768C716.417 191.869 716.311 192.017 716.189 191.971C713.963 191.178 710.391 188.612 707.941 187.469C706.834 186.945 705.146 185.68 704.145 187.067C702.265 189.664 710.264 195.193 712.718 197.698L712.708 197.713C712.647 197.947 711.625 197.723 706.457 195.137C705.446 194.629 704.211 194.664 703.495 195.274C701.315 197.144 706.813 200.549 711.737 204.08C715.086 206.484 718.999 207.993 722.917 209.37C724.629 209.975 726.382 210.463 728.156 210.854C732.871 211.891 738.07 215.097 742.216 217.567L745.804 218.675V218.685L745.814 218.7Z" fill="#796AE2"/>
<path d="M747.4 199.502C749.336 196.793 752.877 195.757 755.962 197.007L805.883 217.104C816.417 220.443 820.472 236.109 817.469 248.214C815.03 258.046 821.768 272.61 814.014 272.168C811.447 272.021 791.233 260.333 789.063 258.875L739.061 223.675C735.788 221.368 735.016 216.84 737.343 213.583L747.405 199.512L747.4 199.502Z" fill="#CFC4FF"/>
<path d="M864.296 304.461L790.994 260.191C776.664 245.703 764.164 231.978 771.369 216.052L766.821 224.33C771.273 212.312 787.823 211.337 806.574 217.282L866.369 233.513C872.162 235.225 877.619 238.035 882.132 242.055C890.806 249.789 895.512 260.262 890.105 272.204L889.622 279.226C882.411 295.152 878.483 312.15 864.29 304.461H864.296Z" fill="#CFC4FF"/>
</g>
<defs>
<clipPath id="clip0_967_99">
<rect width="1016.31" height="711.417" fill="white"/>
</clipPath>
</defs>
</svg>
