<svg width="1017" height="712" viewBox="0 0 1017 712" fill="none" xmlns="http://www.w3.org/2000/svg">
<path d="M511.67 227.1C510.63 227.1 509.57 227.12 508.53 227.14C440.21 228.84 386.2 285.6 387.91 353.92C389.59 421.19 444.64 474.57 511.55 474.57C512.59 474.57 513.64 474.55 514.69 474.53C583.01 472.83 637.02 416.06 635.32 347.75C633.64 280.48 578.58 227.09 511.67 227.1Z" fill="#241950"/>
<path d="M633.68 329.8C628.83 301.46 614.33 276.4 593.69 258.14C581.88 265.35 574 278.36 574 293.21C574 315.89 592.38 334.27 615.06 334.27C621.76 334.27 628.09 332.65 633.68 329.8Z" fill="#A693FF"/>
<path d="M304.07 354.72C314.15 354.72 322.329 346.55 322.329 336.46C322.329 326.37 314.16 318.2 304.07 318.2C293.98 318.2 285.81 326.37 285.81 336.46C285.81 346.55 293.98 354.72 304.07 354.72Z" fill="#8770EC"/>
<path d="M403.32 489.69C411.9 489.69 418.85 482.74 418.85 474.16C418.85 465.58 411.9 458.63 403.32 458.63C394.74 458.63 387.79 465.58 387.79 474.16C387.79 482.74 394.74 489.69 403.32 489.69Z" fill="#8770EC"/>
<path d="M201.68 405.4C219.38 405.4 233.72 391.06 233.72 373.36C233.72 355.66 219.37 341.32 201.68 341.32C183.99 341.32 169.64 355.66 169.64 373.36C169.64 391.06 183.99 405.4 201.68 405.4Z" fill="#A693FF"/>
<path d="M591.419 465.73C599.619 465.73 606.259 459.09 606.259 450.89C606.259 442.69 599.619 436.05 591.419 436.05C583.219 436.05 576.579 442.69 576.579 450.89C576.579 459.09 583.219 465.73 591.419 465.73Z" fill="#A693FF"/>
<path d="M635.359 272.13C643.559 272.13 650.2 265.49 650.2 257.29C650.2 249.09 643.559 242.45 635.359 242.45C627.159 242.45 620.52 249.09 620.52 257.29C620.52 265.49 627.159 272.13 635.359 272.13Z" fill="#BBABFF"/>
<path d="M224.08 283.03C261.2 283.03 291.29 252.94 291.29 215.83C291.29 178.72 261.2 148.63 224.08 148.63C186.96 148.63 156.87 178.72 156.87 215.83C156.87 252.94 186.96 283.03 224.08 283.03Z" fill="#CFC4FF"/>
<path d="M535.64 572.32C558.25 572.32 576.58 553.99 576.58 531.38C576.58 508.77 558.25 490.44 535.64 490.44C513.03 490.44 494.7 508.77 494.7 531.38C494.7 553.99 513.03 572.32 535.64 572.32Z" fill="#CFC4FF"/>
<path d="M790.459 227.12C802.089 227.12 811.509 217.7 811.509 206.07C811.509 194.44 802.089 185.02 790.459 185.02C778.829 185.02 769.409 194.44 769.409 206.07C769.409 217.7 778.839 227.12 790.459 227.12Z" fill="#BBABFF"/>
<path d="M630.219 211.91C645.859 211.91 658.539 199.23 658.539 183.59C658.539 167.95 645.859 155.27 630.219 155.27C614.579 155.27 601.899 167.95 601.899 183.59C601.899 199.23 614.579 211.91 630.219 211.91Z" fill="#BBABFF"/>
<path d="M294.009 550.12C309.649 550.12 322.329 537.44 322.329 521.8C322.329 506.16 309.649 493.48 294.009 493.48C278.369 493.48 265.689 506.16 265.689 521.8C265.689 537.44 278.369 550.12 294.009 550.12Z" fill="#CFC4FF"/>
<path d="M544.969 252.96C556.959 252.96 566.68 243.24 566.68 231.26C566.68 219.28 556.959 209.56 544.969 209.56C532.979 209.56 523.27 219.28 523.27 231.26C523.27 243.24 532.989 252.96 544.969 252.96Z" fill="#BBABFF"/>
<path d="M499.51 303.1C507.29 303.1 513.59 296.8 513.59 289.02C513.59 281.24 507.29 274.94 499.51 274.94C491.73 274.94 485.43 281.24 485.43 289.02C485.43 296.8 491.74 303.1 499.51 303.1Z" fill="#8770EC"/>
<path d="M685.73 445.62C691.32 445.62 695.84 441.09 695.84 435.51C695.84 429.93 691.31 425.4 685.73 425.4C680.15 425.4 675.62 429.93 675.62 435.51C675.62 441.09 680.15 445.62 685.73 445.62Z" fill="#8770EC"/>
<path d="M635.26 358.01C622.29 353.18 607.19 355.02 595.52 364.19C577.69 378.2 574.59 404.01 588.6 421.84C592.74 427.11 597.92 431.08 603.61 433.72C622.9 412.39 633.64 385.52 635.25 358.01H635.26Z" fill="#4A32AE"/>
<path d="M808.359 473.98C826.219 473.98 840.7 459.5 840.7 441.64C840.7 423.78 826.219 409.3 808.359 409.3C790.499 409.3 776.02 423.78 776.02 441.64C776.02 459.5 790.499 473.98 808.359 473.98Z" fill="#8770EC"/>
<path d="M385.509 267.53C396.659 267.53 405.699 258.49 405.699 247.34C405.699 236.19 396.659 227.15 385.509 227.15C374.359 227.15 365.319 236.19 365.319 247.34C365.319 258.49 374.359 267.53 385.509 267.53Z" fill="#735BD7"/>
<path d="M547.489 433.69C555.199 433.69 561.449 427.44 561.449 419.73C561.449 412.02 555.199 405.77 547.489 405.77C539.779 405.77 533.529 412.02 533.529 419.73C533.529 427.44 539.779 433.69 547.489 433.69Z" fill="#4A32AE"/>
<path d="M529.01 406.77L524.19 406.51C523.67 406.47 523.36 406.42 523.16 406.32L522.91 411.31L522.19 425.62L518.96 474.34C528.7 473.78 538.14 472.09 547.15 469.4L550.98 414.44C551 414.21 551.32 414.22 551.32 414.45L551.35 468.07C555.76 466.58 560.06 464.84 564.23 462.89L563.12 413.54C557.14 412.98 551.53 410.71 546.9 407.12C540.94 407.43 534.96 407.32 529.01 406.76V406.77Z" fill="#4A32AE"/>
<path d="M477.03 427.74L476.81 398.49C476.66 395.18 474.4 392.59 471.66 392.59H458.67L444.43 392.52C441.61 392.51 440.8 393.9 440.65 397.31L437.06 449.5C440.06 451.77 443.159 453.91 446.359 455.9L446.39 405.43C446.39 405.2 446.719 405.19 446.729 405.42L450.4 458.32C459.7 463.64 469.77 467.78 480.38 470.56L478.9 457.97C477.72 447.94 477.1 437.85 477.02 427.75L477.03 427.74Z" fill="#8770EC"/>
<path d="M446.389 405.44L446.359 455.91C447.689 456.74 449.029 457.55 450.399 458.33L446.729 405.43C446.719 405.2 446.389 405.21 446.389 405.44Z" fill="#5F47C3"/>
<path d="M529.01 406.77C534.96 407.33 540.94 407.44 546.9 407.13C541.2 402.73 536.98 396.35 535.41 388.75C531.91 371.84 542.77 355.28 559.69 351.78C561.14 351.48 562.59 351.29 564.03 351.2C561.16 348.32 557.69 346.09 553.87 344.85C551.9 344.13 549.81 343.73 547.63 343.73H540.97C533.5 343.73 526.91 347.47 523.03 353.15L523.01 353.19C522.36 354.15 521.79 355.16 521.3 356.22L511.19 374.17C511 374.5 508.32 379.37 508.23 379.74C508.21 379.81 504.91 385.69 504.34 387.63C503.87 389.24 503.87 390.78 504.14 392.25C505.48 399.57 512.78 404.04 520 402.26L523.25 401.46C523.12 402.82 522.93 405.04 522.89 405.5C522.85 405.96 522.89 406.19 523.16 406.32C523.36 406.42 523.67 406.47 524.19 406.51L529.01 406.77Z" fill="#A693FF"/>
<path d="M550.979 414.45L547.149 469.41C548.559 468.99 549.959 468.55 551.349 468.09L551.319 414.47C551.319 414.24 550.999 414.23 550.979 414.45Z" fill="#241950"/>
<path d="M564.019 351.2C562.579 351.3 561.139 351.48 559.679 351.78C542.769 355.29 531.899 371.84 535.399 388.75C536.969 396.35 541.189 402.72 546.889 407.13C551.519 410.71 557.129 412.99 563.109 413.55C566.129 413.83 569.249 413.68 572.379 413.03C589.289 409.53 600.159 392.97 596.659 376.06C593.449 360.6 579.349 350.2 564.019 351.2Z" fill="#D9D0FF"/>
<path d="M219.129 485.46L204.739 471.07C203.049 469.38 200.319 469.38 198.629 471.07L184.239 485.46C182.549 487.15 182.549 489.88 184.239 491.57L198.629 505.96C200.319 507.65 203.049 507.65 204.739 505.96L219.129 491.57C220.819 489.88 220.819 487.15 219.129 485.46Z" fill="#A693FF"/>
<path d="M325.09 437.14L310.7 422.75C309.01 421.06 306.28 421.06 304.59 422.75L290.2 437.14C288.51 438.83 288.51 441.56 290.2 443.25L304.59 457.64C306.28 459.33 309.01 459.33 310.7 457.64L325.09 443.25C326.78 441.56 326.78 438.83 325.09 437.14Z" fill="#D9D0FF"/>
<path d="M688.71 321.68L723.05 356.01C726.74 359.7 732.72 359.7 736.41 356.01L770.75 321.68C774.44 317.99 774.44 312.01 770.75 308.32L736.41 273.99C732.72 270.3 726.73 270.3 723.05 273.99L688.71 308.32C685.02 312.01 685.02 317.99 688.71 321.68Z" fill="#A693FF"/>
<path d="M497.58 183.13L472.22 157.77C468.53 154.08 462.55 154.08 458.86 157.77L433.5 183.13C429.81 186.82 429.81 192.8 433.5 196.49L458.86 221.85C462.55 225.54 468.53 225.54 472.22 221.85L497.58 196.49C501.27 192.8 501.27 186.82 497.58 183.13Z" fill="#A693FF"/>
<path d="M746.989 527.18L724.949 505.15C721.929 502.13 717.019 502.13 713.999 505.15L691.959 527.18C688.939 530.2 688.939 535.1 691.959 538.13L713.999 560.16C717.019 563.18 721.929 563.18 724.949 560.16L746.989 538.13C750.009 535.1 750.009 530.2 746.989 527.18Z" fill="#A693FF"/>
<path d="M535.22 348.54C540.07 352.67 548 353.35 551.77 348.99C555.54 344.63 553.74 336.88 548.88 332.76C544.03 328.63 537.04 328.82 533.27 333.18C529.49 337.54 530.37 344.42 535.23 348.54H535.22Z" fill="#4A32AE"/>
<path d="M528.879 343.45C535.099 350.28 546.859 352.82 553.119 346.43C556.639 342.83 556.819 337.55 555.829 332.15C555.059 327.94 553.759 323.62 551.569 320.3C546.489 312.58 535.219 313.12 528.949 319.51C522.689 325.9 522.649 336.63 528.879 343.46V343.45Z" fill="#937CF8"/>
<path d="M554.019 338.83C553.739 338.78 553.379 339.04 552.819 339.01C552.609 339 552.439 339.31 552.209 339.39C551.939 339.49 551.589 339.34 551.359 339.54C550.649 340.14 549.719 339.89 549.259 340.23C549.069 340.37 549.099 340.62 549.319 340.69C550.729 341.14 553.949 340.52 554.229 339.12C554.259 338.98 554.169 338.85 554.019 338.82V338.83Z" fill="#4A32AE"/>
<path d="M552.83 341.04C552.75 341.1 552.68 341.16 552.61 341.22C552.59 341.23 552.56 341.26 552.64 341.19C552.64 341.19 552.64 341.2 552.62 341.21C552.61 341.22 552.59 341.23 552.58 341.24C552.55 341.26 552.52 341.27 552.5 341.29C552.48 341.3 552.58 341.26 552.54 341.28C552.53 341.28 552.52 341.28 552.51 341.29C552.49 341.29 552.47 341.3 552.46 341.3C552.44 341.3 552.37 341.32 552.42 341.31H552.38C552.25 341.32 552.12 341.31 551.98 341.29V341.83C552.15 341.81 552.33 341.78 552.5 341.74C552.71 341.68 552.92 341.61 553.12 341.51L552.79 341.09C552.69 341.2 552.68 341.37 552.79 341.47C552.9 341.57 553.07 341.58 553.17 341.47C553.26 341.37 553.28 341.22 553.19 341.11C553.11 341 552.96 340.98 552.84 341.04C552.82 341.05 552.8 341.06 552.78 341.07C552.77 341.07 552.76 341.08 552.74 341.09C552.78 341.08 552.78 341.08 552.76 341.09C552.72 341.11 552.67 341.13 552.62 341.14C552.54 341.17 552.45 341.2 552.36 341.22C552.27 341.25 552.18 341.26 552.09 341.28C552.07 341.28 552.03 341.3 552.02 341.29C552.03 341.29 552.08 341.29 552.04 341.29C552.02 341.29 552.01 341.29 551.99 341.29C551.91 341.3 551.85 341.32 551.8 341.37C551.76 341.42 551.72 341.5 551.72 341.56C551.72 341.62 551.74 341.7 551.8 341.75C551.86 341.8 551.92 341.82 551.99 341.83C552.24 341.87 552.5 341.88 552.74 341.77C552.84 341.73 552.91 341.68 552.99 341.61C553.02 341.59 553.05 341.56 553.07 341.54C553.09 341.52 553.1 341.51 553.12 341.5C553.12 341.5 553.13 341.49 553.14 341.48C553.18 341.44 553.09 341.52 553.12 341.5C553.18 341.45 553.22 341.41 553.25 341.34C553.27 341.27 553.25 341.19 553.23 341.13C553.19 341.07 553.14 341.02 553.07 341C553 340.98 552.92 340.98 552.86 341.03L552.83 341.04Z" fill="#735BD7"/>
<path d="M553.23 336.33C553.31 336 553.35 335.81 553.15 335.73C552.75 335.56 552.3 336.11 551.92 336.34C551.92 336.34 551.9 336.36 551.86 336.38C551.74 336.45 551.62 336.51 551.49 336.54C550.93 336.67 550.41 336.61 550.14 336.72C549.8 336.86 549.28 337.06 549.39 337.46C549.58 338.19 552.9 338.35 553.24 336.33H553.23Z" fill="#735BD7"/>
<path d="M545.889 337.88C543.989 337.88 542.199 336.3 541.709 334.05C541.169 331.52 542.479 329.08 544.639 328.62C546.799 328.16 548.989 329.84 549.529 332.37C549.789 333.58 549.639 334.81 549.099 335.83C548.549 336.87 547.659 337.57 546.609 337.8C546.369 337.85 546.129 337.88 545.889 337.88ZM545.359 329.31C545.169 329.31 544.99 329.33 544.799 329.37C543.059 329.74 542.009 331.77 542.459 333.89C542.919 336.01 544.7 337.43 546.45 337.06C547.28 336.88 547.99 336.32 548.43 335.48C548.89 334.62 549.009 333.57 548.789 332.53C548.379 330.64 546.909 329.3 545.359 329.3V329.31Z" fill="#4A32AE"/>
<path d="M554.39 335.39C553.64 335.39 552.91 335.02 552.29 334.32C551.62 333.57 551.17 332.51 551.01 331.35C550.81 329.89 551.11 328.46 551.82 327.52C552.27 326.93 552.84 326.57 553.48 326.48C554.33 326.36 555.19 326.73 555.9 327.53C556.57 328.28 557.02 329.34 557.18 330.5C557.52 332.99 556.44 335.13 554.71 335.37C554.61 335.38 554.5 335.39 554.4 335.39H554.39ZM553.77 327.21C553.7 327.21 553.63 327.21 553.57 327.22C553.13 327.28 552.73 327.54 552.4 327.97C551.81 328.76 551.56 329.98 551.73 331.25C551.87 332.27 552.26 333.18 552.83 333.82C553.36 334.42 553.99 334.71 554.58 334.62C555.87 334.44 556.7 332.63 556.41 330.59C556.27 329.58 555.88 328.66 555.31 328.02C554.84 327.49 554.29 327.2 553.76 327.2L553.77 327.21Z" fill="#4A32AE"/>
<path d="M549.219 332.13L548.649 331.55L548.819 331.38C549.349 330.86 550.209 330.53 551.069 330.52V331.34C550.439 331.34 549.769 331.6 549.389 331.97L549.219 332.14V332.13Z" fill="#4A32AE"/>
<path d="M541.918 331.746L533.211 333.276L533.349 334.064L542.056 332.534L541.918 331.746Z" fill="#4A32AE"/>
<path d="M552.63 321.01C549.75 313.86 536.66 311.39 528.69 319.23C522.13 325.68 522.22 336.83 528.62 343.85C529.29 344.58 530.01 345.25 530.76 345.85C531.31 346.28 532.13 346.15 532.5 345.55C532.82 345.03 533.06 344.45 533.23 343.87C533.57 342.75 533.73 341.59 533.8 340.43C533.83 339.91 533.84 339.39 533.83 338.88C533.81 338.26 533.72 337.64 533.63 337.03C533.48 335.97 533.34 334.8 533.84 333.83C533.82 333.79 533.8 333.74 533.79 333.71C533.9 333.61 534 333.51 534.12 333.41C534.32 333.15 534.57 332.94 534.83 332.74C534.93 332.67 535.03 332.6 535.12 332.54C537.47 330.55 536.63 330.69 538.62 328.08C539.21 327.31 539.75 326.51 540.32 325.74C540.66 325.3 541.01 324.84 541.46 324.52C541.82 324.27 542.23 324.13 542.64 324.02C543.33 323.83 546.84 322.99 548.64 322.81C549.13 322.76 549.61 322.6 550.08 322.48C550.57 322.35 551.05 322.19 551.52 321.98L552.4 321.54C552.49 321.49 552.57 321.43 552.63 321.33C552.69 321.23 552.69 321.13 552.62 321.03H552.63V321.01Z" fill="#4A32AE"/>
<path d="M543.98 333.31C544.19 334.26 545.73 334.7 546.36 334.54C546.99 334.38 547.32 333.48 547.1 332.53C546.89 331.58 546.21 330.94 545.59 331.11C544.96 331.27 543.77 332.37 543.98 333.32V333.31Z" fill="white"/>
<path d="M552.47 331.08C552.66 331.96 553.87 332.43 554.45 332.29C555.03 332.14 555.35 331.32 555.16 330.43C554.97 329.55 554.34 328.95 553.76 329.1C553.18 329.25 552.28 330.21 552.48 331.09L552.47 331.08Z" fill="white"/>
<path d="M546.319 334.55C546.949 334.42 547.309 333.55 547.119 332.6C546.929 331.65 546.259 330.98 545.629 331.11C544.999 331.24 544.639 332.11 544.829 333.06C545.019 334.01 545.689 334.68 546.319 334.55Z" fill="#241950"/>
<path d="M554.409 332.3C554.999 332.19 555.339 331.37 555.169 330.49C554.999 329.6 554.379 328.98 553.789 329.09C553.199 329.2 552.859 330.02 553.029 330.9C553.199 331.79 553.819 332.41 554.409 332.3Z" fill="#241950"/>
<path d="M539.849 394.13C541.479 394.23 550.529 392.07 549.629 389.69C549.459 389.24 548.979 388.97 548.499 388.98C547.769 388.98 546.659 389.11 546.079 389.14C546.009 389.14 545.98 389.04 546.05 389.01C547.44 388.32 550.979 387.29 550.459 385.7C550.289 385.2 549.779 384.9 549.259 384.91C548.109 384.94 546.259 385.42 545.249 385.32C545.179 385.32 545.159 385.22 545.229 385.19C546.759 384.49 551.409 382.91 550.219 381.14C549.919 380.7 549.009 380.82 548.269 380.99C546.829 381.32 544.64 381.77 543.32 382.05C543.25 382.06 543.209 381.96 543.269 381.92C544.279 381.27 546.349 380.7 547.279 379.76C547.969 379.05 547.519 377.82 546.519 377.67C544.449 377.36 540.999 379.23 539.109 379.38C539.079 379.38 539.03 379.36 539.04 379.33C539.43 378.4 539.819 378.07 540.239 376.9C541.259 374.01 538.129 374.34 536.729 376.15C534.149 379.91 529.08 382.47 530.55 387.93C531.79 392.82 535.509 395.27 539.839 394.12H539.859L539.849 394.13Z" fill="#937CF8"/>
<path d="M456.189 342.21C450.829 338.47 451.409 333.01 454.369 328.3C455.079 326.78 456.979 323.79 457.739 320.6C457.889 320.18 460.599 319.92 460.749 319.5C460.879 319.58 463.279 319.93 463.389 320.08C463.449 320.21 461.499 321.99 461.509 322.11C461.739 322.73 463.039 322.38 463.819 322.9C467.139 321.72 464.909 325.38 468.309 326.97C477.409 331.48 474.969 344.15 464.239 344.3C464.649 344.67 465.039 345.01 465.509 345.28C464.929 345.17 464.579 344.65 464.139 344.31C461.419 344.43 458.449 343.71 456.189 342.2V342.21Z" fill="#735BD7"/>
<path d="M481.239 321.52C477.219 312.91 461.279 309.97 457.619 320.23C457.459 320.67 457.629 321.16 458.029 321.39C458.889 321.86 460.239 322.28 460.699 323.32C461.719 326.5 460.469 329.77 464.479 326.92C464.879 326.63 465.339 326.41 465.829 326.33C467.549 326.06 468.479 327.35 468.459 328.77C468.449 329.58 468.069 330.35 467.509 330.94C464.879 333.71 462.749 334.63 463.449 339.9C463.779 343.13 467.499 343.69 469.969 345.44C473.639 345.51 476.999 342.91 479.209 339.36C479.209 339.36 479.219 339.36 479.229 339.36C482.529 335.34 483.869 325.14 481.239 321.5V321.52Z" fill="#4A32AE"/>
<path d="M456.59 326.41C456.59 326.41 456.52 326.36 456.49 326.34C456.44 326.41 456.4 326.49 456.36 326.56C456.33 326.61 456.31 326.65 456.29 326.7C456.26 326.74 456.24 326.78 456.21 326.82C456.15 326.89 456.08 326.96 456.01 327.03C455.89 327.17 455.81 327.32 455.74 327.48C455.67 327.65 455.63 327.82 455.58 328C455.54 328.14 455.5 328.27 455.46 328.4C456.07 328.59 457.24 328.81 457.55 328.35C457.9 327.83 456.98 326.74 456.59 326.41Z" fill="white"/>
<path d="M456.65 327.7C456.38 328.27 455.92 328.58 455.48 328.39C455.04 328.2 454.88 327.57 455.16 327.01C455.43 326.44 455.91 326.04 456.47 326.34C456.89 326.57 456.92 327.14 456.65 327.7Z" fill="#24194B"/>
<path d="M440.339 398.75C439.759 398.68 439.339 398.16 439.399 397.58L441.249 382.54C441.999 376.63 442.629 373.88 442.499 367.93C442.359 362.06 441.629 357.24 442.069 354.95C444.479 342.28 447.019 340.96 455.259 341.04C469.309 341.18 480.519 346.86 479.419 362.44C479.199 365.22 478.189 372.73 477.969 375.09C477.069 384.77 478.529 391.16 479.149 400.51C479.229 401.69 478.519 402.78 477.429 403.15C470.079 405.59 447.109 398.89 441.529 398.89L440.349 398.76L440.339 398.75Z" fill="#CFC4FF"/>
<path d="M380.579 357.51C398.079 357.51 412.259 343 412.259 325.1C412.259 307.2 398.079 292.69 380.579 292.69C363.079 292.69 348.899 307.2 348.899 325.1C348.899 343 363.079 357.51 380.579 357.51Z" fill="#A693FF"/>
<path d="M388.77 335.95C388.77 336.05 388.32 336.06 385.89 335.45C385.42 335.33 384.89 335.47 384.65 335.79C383.91 336.79 386.55 337.7 388.96 338.73C390.97 339.58 393.09 340.11 395.25 340.37C396.32 340.5 397.4 340.62 397.4 340.62C399.39 340.98 400.98 341.56 402.91 343.15C404.01 344.05 406.67 340.17 407.97 337.83C409.44 335.27 407 333.81 403.08 332.04C401.22 331.2 400.15 329.46 399.26 328.3C397.87 326.48 397.56 326.7 396.83 325.92C395.51 324.51 394.37 326.31 395.39 327.73C396.07 328.67 396.54 328.89 396.78 329.7C396.78 329.73 396.73 329.73 396.7 329.72C394.84 329.22 390.81 327.08 388.84 326.34C387.95 326 387.18 327.14 387.76 327.84C388.53 328.77 391.25 330.17 392.16 330.9C392.21 330.94 392.16 331.02 392.1 331C390.84 330.52 388.83 329.75 387.46 329.2C386.75 328.92 385.41 328.36 385.04 328.64C384.79 328.83 384.65 329.13 384.72 329.39C385.05 330.58 387.88 331.72 389.71 333.1C389.76 333.14 389.73 333.21 389.67 333.2C388.65 333.07 386.9 332.33 385.76 332.08C385.24 331.96 384.41 331.59 384.12 332.27C383.57 333.55 387.47 335.12 388.75 335.95L388.76 335.96L388.77 335.95ZM390.34 327.98C390.34 327.9 390.34 327.94 390.34 327.98V327.98Z" fill="#735BD7"/>
<path d="M404.729 333.72C405.449 332.34 407.029 331.62 408.549 332L433.069 338.09C438.189 338.96 441.089 345.97 440.489 351.8C439.989 356.53 444.079 362.86 440.439 363.16C439.239 363.26 429.079 359.14 427.969 358.6L402.429 345.49C400.759 344.63 400.099 342.58 400.979 340.91L404.739 333.71L404.729 333.72Z" fill="#CFC4FF"/>
<path d="M465.92 374.9L428.95 359.09C421.34 353.29 414.64 347.72 416.95 339.85L415.37 344C416.66 338.13 424.29 336.59 433.4 338.13L462.26 341.78C465.06 342.2 467.79 343.15 470.14 344.72C474.68 347.75 477.54 352.31 475.81 358.22L476.04 361.51C473.73 369.38 473 377.55 465.91 374.89L465.92 374.9Z" fill="#CFC4FF"/>
<path d="M442.39 364.83L452.27 366.77C452.98 366.9 457.13 367.49 460.46 368.01C461.15 368.12 461.06 368.72 460.36 368.71L454.72 368.63C452.84 368.6 450.96 368.62 449.11 368.72C445.69 368.91 443.78 369 442.5 369.5L442.43 366.78L442.39 364.83Z" fill="#9C85FF"/>
</svg>
